<svg id="Layer_1" data-name="Layer 1" xmlns="http://www.w3.org/2000/svg" viewBox="0 0 200 200"><defs><style>.cls-1{fill:#58595b;}.cls-2{fill:#007dfe;}.cls-3{fill:#fff;}</style></defs><title>97Pay-icon</title><path class="cls-1" d="M126.69,10a49.94,49.94,0,1,0,49.94,50A50,50,0,0,0,126.69,10Zm0,93.26A43.32,43.32,0,1,1,170,60,43.36,43.36,0,0,1,126.69,103.26Z"/><path class="cls-2" d="M126.69,16.63A43.32,43.32,0,1,0,170,60,43.36,43.36,0,0,0,126.69,16.63Zm0,40c10.13,0,18.38,6.55,18.38,14.59,0,7.14-6.51,13.1-15.07,14.34v9.07a3.31,3.31,0,0,1-6.62,0V85.56c-8.56-1.24-15.07-7.2-15.07-14.34a3.31,3.31,0,1,1,6.62,0c0,4.31,5.39,8,11.76,8s11.76-3.65,11.76-8-5.39-8-11.76-8c-10.13,0-18.38-6.55-18.38-14.59,0-7.14,6.51-13.1,15.07-14.34V25.26a3.31,3.31,0,1,1,6.62,0v9.07c8.56,1.24,15.07,7.2,15.07,14.34a3.31,3.31,0,0,1-6.62,0c0-4.32-5.39-8-11.76-8s-11.76,3.64-11.76,8S120.32,56.63,126.69,56.63Z"/><path class="cls-3" d="M145.07,71.22c0,7.14-6.51,13.1-15.07,14.34a22.95,22.95,0,0,1-6.62,0c-8.56-1.24-15.07-7.2-15.07-14.34a3.31,3.31,0,1,1,6.62,0c0,4.31,5.39,8,11.76,8s11.76-3.65,11.76-8-5.39-8-11.76-8c-10.13,0-18.38-6.55-18.38-14.59,0-7.14,6.51-13.1,15.07-14.34a22.95,22.95,0,0,1,6.62,0c8.56,1.24,15.07,7.2,15.07,14.34a3.31,3.31,0,0,1-6.62,0c0-4.32-5.39-8-11.76-8s-11.76,3.64-11.76,8,5.39,8,11.76,8C136.82,56.63,145.07,63.18,145.07,71.22Z"/><path class="cls-3" d="M130,25.26V37.4a3.31,3.31,0,1,1-6.62,0V25.26a3.31,3.31,0,1,1,6.62,0Z"/><path class="cls-3" d="M130,82.49V94.63a3.31,3.31,0,0,1-6.62,0V82.49a3.31,3.31,0,0,1,6.62,0Z"/><path class="cls-1" d="M48.5,122.26a36.12,36.12,0,0,0-2.84-6A35.76,35.76,0,0,0,15,98.84a3.31,3.31,0,0,0-3.31,3.31V177.3A3.31,3.31,0,0,0,15,180.61H47.38a3.31,3.31,0,0,0,3.31-3.31V134.58A35.45,35.45,0,0,0,48.5,122.26ZM44.07,174H18.26V105.65a29.15,29.15,0,0,1,25.81,28.93Z"/><path class="cls-2" d="M44.07,134.58V174H18.26V105.65A29.15,29.15,0,0,1,44.07,134.58Z"/><path class="cls-1" d="M136.08,146.57a13.41,13.41,0,0,1-5.63,9,13.68,13.68,0,0,1-7.78,2.44,13.29,13.29,0,0,1-5.52-1.19l-29.91-13.5-10,4.3a3.31,3.31,0,1,1-2.62-6.08L86,136.69a3.27,3.27,0,0,1,2.67,0l31.24,14.11a6.93,6.93,0,0,0,7-.81,6.9,6.9,0,0,0,2.36-7.69,6.85,6.85,0,0,0-3.71-4.09L76.4,116.12a10.69,10.69,0,0,0-7.63-.42L48.5,122.26l-.1,0a3.31,3.31,0,0,1-2.74-6,3.19,3.19,0,0,1,.7-.32l20.37-6.59a17.25,17.25,0,0,1,12.38.69l49.15,22.1a13.51,13.51,0,0,1,7.82,14.38Z"/><path class="cls-2" d="M176.82,155.77l-61.43,24.95a36.65,36.65,0,0,1-28.62-.5L50.69,164.09V134.58a35.45,35.45,0,0,0-2.19-12.32l20.27-6.56a10.69,10.69,0,0,1,7.63.42l49.15,22.11a6.9,6.9,0,0,1,3.23,9.59A6.78,6.78,0,0,1,126.9,150a6.93,6.93,0,0,1-7,.81L88.63,136.71a3.27,3.27,0,0,0-2.67,0l-11.32,4.88a3.31,3.31,0,1,0,2.62,6.08l10-4.3,29.91,13.5a13.29,13.29,0,0,0,5.52,1.19,13.68,13.68,0,0,0,7.78-2.44l40.79-14.5a7.89,7.89,0,0,1,10,4.62A7.8,7.8,0,0,1,176.82,155.77Z"/><path class="cls-1" d="M179.31,161.91l-61.43,25a43.4,43.4,0,0,1-33.81-.59L50.69,171.34,46,169.26a3.32,3.32,0,0,1-2-3,3.25,3.25,0,0,1,.29-1.35,3.32,3.32,0,0,1,4.37-1.67l2,.88,36.08,16.13a36.65,36.65,0,0,0,28.62.5l61.43-24.95a7.8,7.8,0,0,0,4.39-10.05,7.89,7.89,0,0,0-10-4.62l-40.79,14.5-.42.15A3.31,3.31,0,0,1,126.9,150a3.21,3.21,0,0,1,.91-.5l8.27-2.94L169,134.87a14.47,14.47,0,0,1,10.29,27Z"/></svg>