<svg id="Layer_1" data-name="Layer 1" xmlns="http://www.w3.org/2000/svg" viewBox="0 0 200 200"><defs><style>.cls-1{fill:#58595b;}</style></defs><title>97Pay-icon</title><path class="cls-1" d="M174.8,94.6H146.24a3.32,3.32,0,0,1-3.32-3.31V63.78H57.08V91.29a3.32,3.32,0,0,1-3.32,3.31H25.19A15.21,15.21,0,0,1,10,79.41V41.52A15.21,15.21,0,0,1,25.19,26.33H174.8A15.21,15.21,0,0,1,190,41.52V79.41A15.21,15.21,0,0,1,174.8,94.6ZM149.56,88H174.8a8.57,8.57,0,0,0,8.57-8.56V41.52A8.58,8.58,0,0,0,174.8,33H25.19a8.58,8.58,0,0,0-8.56,8.57V79.41A8.57,8.57,0,0,0,25.19,88H50.44V60.46a3.32,3.32,0,0,1,3.32-3.31h92.48a3.32,3.32,0,0,1,3.32,3.31Z"/><path class="cls-1" d="M164.9,63.78H35.09a3.32,3.32,0,0,1,0-6.63H164.9a3.32,3.32,0,1,1,0,6.63Z"/><path class="cls-1" d="M146.24,173.67H53.76a3.32,3.32,0,0,1-3.32-3.31V60.46a3.32,3.32,0,0,1,3.32-3.31h92.48a3.32,3.32,0,0,1,3.32,3.31v109.9A3.32,3.32,0,0,1,146.24,173.67Zm-89.16-6.62h85.84V63.78H57.08Z"/><path class="cls-1" d="M100,137.05c-8.58,0-15.57-5.59-15.57-12.47a3.32,3.32,0,1,1,6.64,0c0,3.17,4.08,5.85,8.93,5.85s8.93-2.68,8.93-5.85-4.08-5.86-8.93-5.86c-8.58,0-15.57-5.59-15.57-12.47s7-12.48,15.57-12.48,15.57,5.59,15.57,12.48a3.32,3.32,0,0,1-6.64,0c0-3.18-4.08-5.86-8.93-5.86s-8.93,2.68-8.93,5.86,4.08,5.85,8.93,5.85c8.58,0,15.57,5.59,15.57,12.48S108.58,137.05,100,137.05Z"/><path class="cls-1" d="M100,100.39a3.32,3.32,0,0,1-3.32-3.31V87.21a3.32,3.32,0,0,1,6.64,0v9.87A3.32,3.32,0,0,1,100,100.39Z"/><path class="cls-1" d="M100,146.92a3.32,3.32,0,0,1-3.32-3.31v-9.87a3.32,3.32,0,0,1,6.64,0v9.87A3.32,3.32,0,0,1,100,146.92Z"/></svg>