<svg id="Layer_1" data-name="Layer 1" xmlns="http://www.w3.org/2000/svg" viewBox="0 0 200 200"><defs><style>.cls-1{fill:#58595b;}</style></defs><title>97Pay-icon</title><path class="cls-1" d="M100,190a90,90,0,1,1,90-90A90.1,90.1,0,0,1,100,190Zm0-172.78A82.78,82.78,0,1,0,182.78,100,82.87,82.87,0,0,0,100,17.22Z"/><path class="cls-1" d="M74,146.46a3.66,3.66,0,0,1-2.34-.86L37.33,116.27a3.6,3.6,0,0,1,0-5.49L71.69,81.46a3.61,3.61,0,0,1,6,2.74V96.39H126a3.61,3.61,0,0,1,3.61,3.61v8l25.19-21.5L129.58,65v8A3.61,3.61,0,0,1,126,76.55H92.66a3.61,3.61,0,0,1,0-7.22h29.7V57.15a3.61,3.61,0,0,1,6-2.75l34.37,29.33a3.62,3.62,0,0,1,0,5.49l-34.37,29.32a3.55,3.55,0,0,1-3.85.53,3.59,3.59,0,0,1-2.1-3.27V103.61H74A3.61,3.61,0,0,1,70.42,100V92l-25.19,21.5L70.42,135v-8A3.61,3.61,0,0,1,74,123.45h33.32a3.61,3.61,0,1,1,0,7.22H77.64v12.18a3.62,3.62,0,0,1-2.09,3.28A3.72,3.72,0,0,1,74,146.46Z"/></svg>