<svg id="Layer_1" data-name="Layer 1" xmlns="http://www.w3.org/2000/svg" viewBox="0 0 200 200"><defs><style>.cls-1{fill:#58595b;}</style></defs><title>97Pay-icon</title><path class="cls-1" d="M126.69,109.88a49.94,49.94,0,1,1,49.94-49.94A50,50,0,0,1,126.69,109.88Zm0-93.25A43.31,43.31,0,1,0,170,59.94,43.36,43.36,0,0,0,126.69,16.63Z"/><path class="cls-1" d="M126.69,85.8c-10.13,0-18.38-6.55-18.38-14.59a3.31,3.31,0,0,1,6.62,0c0,4.32,5.39,8,11.76,8s11.76-3.64,11.76-8-5.39-8-11.76-8c-10.13,0-18.38-6.54-18.38-14.58s8.25-14.59,18.38-14.59,18.38,6.55,18.38,14.59a3.31,3.31,0,0,1-6.62,0c0-4.32-5.39-8-11.76-8s-11.76,3.64-11.76,8,5.39,8,11.76,8c10.13,0,18.38,6.54,18.38,14.58S136.82,85.8,126.69,85.8Z"/><path class="cls-1" d="M126.69,40.71a3.31,3.31,0,0,1-3.31-3.31V25.25a3.31,3.31,0,0,1,6.62,0V37.4A3.31,3.31,0,0,1,126.69,40.71Z"/><path class="cls-1" d="M126.69,97.94a3.32,3.32,0,0,1-3.31-3.32V82.49a3.31,3.31,0,1,1,6.62,0V94.62A3.32,3.32,0,0,1,126.69,97.94Z"/><path class="cls-1" d="M47.38,180.61H15a3.31,3.31,0,0,1-3.31-3.31V102.15A3.31,3.31,0,0,1,15,98.84a35.77,35.77,0,0,1,35.74,35.73V177.3A3.31,3.31,0,0,1,47.38,180.61ZM18.26,174H44.07V134.57a29.15,29.15,0,0,0-25.81-28.92Z"/><path class="cls-1" d="M122.67,158a13.29,13.29,0,0,1-5.52-1.19L87.24,143.34l-10,4.31a3.31,3.31,0,1,1-2.62-6.08L86,136.68a3.31,3.31,0,0,1,2.67,0l31.24,14.11a6.93,6.93,0,0,0,8.91-3,6.9,6.9,0,0,0-3.23-9.59L76.4,116.12a10.64,10.64,0,0,0-7.63-.42L48.4,122.28a3.31,3.31,0,1,1-2-6.29l20.37-6.59a17.25,17.25,0,0,1,12.38.68l49.15,22.11A13.52,13.52,0,0,1,122.67,158Z"/><path class="cls-1" d="M101.67,190a43.14,43.14,0,0,1-17.6-3.74l-38-17a3.31,3.31,0,1,1,2.7-6l38,17a36.6,36.6,0,0,0,28.62.49l61.43-24.94a7.81,7.81,0,0,0,4.39-10.05,7.89,7.89,0,0,0-10-4.62L130,155.74a3.31,3.31,0,1,1-2.22-6.24L169,134.86a14.47,14.47,0,0,1,10.29,27l-61.43,24.95A43.11,43.11,0,0,1,101.67,190Z"/></svg>