<svg id="Layer_1" data-name="Layer 1" xmlns="http://www.w3.org/2000/svg" viewBox="0 0 200 200"><defs><style>.cls-1{fill:#58595b;}</style></defs><title>97Pay-icon</title><path class="cls-1" d="M100,190a90,90,0,1,1,90-90A90.1,90.1,0,0,1,100,190Zm0-173.38A83.38,83.38,0,1,0,183.37,100,83.48,83.48,0,0,0,100,16.62Z"/><path class="cls-1" d="M100,109.87A35.37,35.37,0,1,1,135.37,74.5,35.41,35.41,0,0,1,100,109.87Zm0-64.11A28.74,28.74,0,1,0,128.74,74.5,28.77,28.77,0,0,0,100,45.76Z"/><path class="cls-1" d="M148.16,158.1a3.32,3.32,0,0,1-3.31-3.32,44.85,44.85,0,0,0-89.7,0,3.31,3.31,0,1,1-6.62,0,51.48,51.48,0,0,1,103,0A3.32,3.32,0,0,1,148.16,158.1Z"/></svg>