<svg id="Layer_1" data-name="Layer 1" xmlns="http://www.w3.org/2000/svg" viewBox="0 0 200 200"><defs><style>.cls-1{fill:#58595b;}.cls-2{fill:#007dfe;}.cls-3{fill:#fff;}</style></defs><title>97Pay-icon</title><path class="cls-1" d="M100,10a90,90,0,1,0,90,90A90.1,90.1,0,0,0,100,10Zm0,173.38A83.38,83.38,0,1,1,183.37,100,83.48,83.48,0,0,1,100,183.38Z"/><path class="cls-2" d="M183.37,100A83.38,83.38,0,1,1,100,16.63,83.47,83.47,0,0,1,183.37,100Z"/><path class="cls-3" d="M100,39.14a35.37,35.37,0,1,0,35.37,35.37A35.41,35.41,0,0,0,100,39.14Zm0,64.11a28.75,28.75,0,1,1,28.74-28.74A28.77,28.77,0,0,1,100,103.25Z"/><path class="cls-3" d="M151.48,154.79a3.32,3.32,0,0,1-6.63,0,44.85,44.85,0,0,0-89.7,0,3.31,3.31,0,1,1-6.62,0,51.48,51.48,0,0,1,103,0Z"/></svg>