<svg id="Layer_1" data-name="Layer 1" xmlns="http://www.w3.org/2000/svg" viewBox="0 0 200 200"><defs><style>.cls-1{fill:#58595b;}</style></defs><title>97Pay-icon</title><path class="cls-1" d="M115.76,186.44H32.56A22.41,22.41,0,0,1,10,164.24V35.76a22.41,22.41,0,0,1,22.56-22.2h83.2a22.41,22.41,0,0,1,22.56,22.2V58.51a3.31,3.31,0,0,1-6.62,0V35.76a15.78,15.78,0,0,0-15.94-15.58H32.56A15.78,15.78,0,0,0,16.62,35.76V164.24a15.78,15.78,0,0,0,15.94,15.58h83.2a15.78,15.78,0,0,0,15.94-15.58V141.49a3.31,3.31,0,0,1,6.62,0v22.75A22.41,22.41,0,0,1,115.76,186.44Z"/><path class="cls-1" d="M186.69,103.31H73.05a3.31,3.31,0,0,1,0-6.62H186.69a3.31,3.31,0,0,1,0,6.62Z"/><path class="cls-1" d="M151.13,127.58a3.31,3.31,0,0,1-1.87-6L180.81,100,149.26,78.46A3.31,3.31,0,1,1,153,73l35.56,24.27a3.3,3.3,0,0,1,0,5.47L153,127A3.28,3.28,0,0,1,151.13,127.58Z"/></svg>