<svg id="Layer_1" data-name="Layer 1" xmlns="http://www.w3.org/2000/svg" viewBox="0 0 200 200"><defs><style>.cls-1{fill:#58595b;}.cls-2{fill:#007dfe;}.cls-3{fill:#fff;}</style></defs><title>97Pay-icon</title><path class="cls-1" d="M100,10a90,90,0,1,0,90,90A90.1,90.1,0,0,0,100,10Zm0,172.78A82.78,82.78,0,1,1,182.78,100,82.87,82.87,0,0,1,100,182.78Z"/><path class="cls-2" d="M100,17.23A82.78,82.78,0,1,0,182.78,100,82.87,82.87,0,0,0,100,17.23Zm28.31,101.32a3.57,3.57,0,0,1-3.85.53,3.61,3.61,0,0,1-2.1-3.28V103.62H74A3.62,3.62,0,0,1,70.42,100V92l-25.19,21.5L70.42,135v-8A3.61,3.61,0,0,1,74,123.45h33.32a3.61,3.61,0,1,1,0,7.22H77.64v12.19a3.6,3.6,0,0,1-6,2.74L37.33,116.28a3.6,3.6,0,0,1,0-5.49L71.69,81.46a3.61,3.61,0,0,1,6,2.75V96.39H126a3.61,3.61,0,0,1,3.61,3.61v8l25.19-21.5L129.58,65v8A3.61,3.61,0,0,1,126,76.56H92.66a3.62,3.62,0,0,1,0-7.23h29.7V57.15a3.61,3.61,0,0,1,6-2.74l34.37,29.32a3.63,3.63,0,0,1,1.26,2.75,3.59,3.59,0,0,1-1.26,2.74Z"/><path class="cls-3" d="M163.94,86.48a3.59,3.59,0,0,1-1.26,2.74l-34.37,29.33a3.57,3.57,0,0,1-3.85.53,3.61,3.61,0,0,1-2.1-3.28V103.62H74A3.62,3.62,0,0,1,70.42,100V92l-25.19,21.5L70.42,135v-8A3.61,3.61,0,0,1,74,123.45h33.32a3.61,3.61,0,1,1,0,7.22H77.64v12.19a3.6,3.6,0,0,1-6,2.74L37.33,116.28a3.6,3.6,0,0,1,0-5.49L71.69,81.46a3.61,3.61,0,0,1,6,2.75V96.39H126a3.61,3.61,0,0,1,3.61,3.61v8l25.19-21.5L129.58,65v8A3.61,3.61,0,0,1,126,76.56H92.66a3.62,3.62,0,0,1,0-7.23h29.7V57.15a3.61,3.61,0,0,1,6-2.74l34.37,29.32A3.63,3.63,0,0,1,163.94,86.48Z"/></svg>