<svg id="Layer_1" data-name="Layer 1" xmlns="http://www.w3.org/2000/svg" viewBox="0 0 200 200"><defs><style>.cls-1{fill:#58595b;}</style></defs><title>97Pay-icon</title><path class="cls-1" d="M108.3,181.7a3.31,3.31,0,1,1,0-6.62,75,75,0,1,0-65.08-37.61,3.31,3.31,0,1,1-5.73,3.31A81.71,81.71,0,1,1,108.3,181.7Z"/><path class="cls-1" d="M108.3,108.45a3.43,3.43,0,0,1-1.25-.24l-34.36-14a3.31,3.31,0,0,1,2.5-6.14l32.36,13.16,36.11-34.89a3.31,3.31,0,0,1,4.6,4.77l-37.67,36.38A3.3,3.3,0,0,1,108.3,108.45Z"/><path class="cls-1" d="M40.37,142.44a3.34,3.34,0,0,1-1.6-.41L11.71,127.15a3.31,3.31,0,0,1,3.2-5.8L38.65,134.4,47.34,112a3.31,3.31,0,1,1,6.16,2.4l-10,25.9a3.34,3.34,0,0,1-2,1.91A3.41,3.41,0,0,1,40.37,142.44Z"/></svg>