<svg id="Layer_1" data-name="Layer 1" xmlns="http://www.w3.org/2000/svg" viewBox="0 0 200 200"><defs><style>.cls-1{fill:#007dfe;}.cls-2{fill:#58595b;}</style></defs><title>97Pay-icon</title><path class="cls-1" d="M161.75,108.29v62.63H118.32V130.33a18.32,18.32,0,1,0-36.63,0v40.59H38.25v-69H13l87-72.79,87,72.79H162.22Z"/><path class="cls-2" d="M161.75,173.89H118.32a3,3,0,0,1-3-3V130.33A15.38,15.38,0,0,0,100,115a15.37,15.37,0,0,0-15.35,15.36v40.59a3,3,0,0,1-3,3H38.25a3,3,0,0,1-3-3V104.83H13a3,3,0,0,1-1.9-5.23l87-72.79a2.94,2.94,0,0,1,3.8,0l87,72.79a3,3,0,0,1-1.9,5.23H165l-.26,3.57v62.52A3,3,0,0,1,161.75,173.89ZM121.28,168h37.5V108.29a1.7,1.7,0,0,1,0-.22l.47-6.42a3,3,0,0,1,3-2.74h16.66L100,32.94l-78.87,66H38.25a3,3,0,0,1,3,3V168H78.73V130.33a21.27,21.27,0,0,1,36.32-15,21.08,21.08,0,0,1,6.23,15Z"/></svg>